# xmcd
#
# Track frame offsets: 
#        150
#        12683
#        24653
#        40979
#        52716
#        62275
#        81481
#        98593
#        113204
#        124680
#        144893
#        157929
#        173663
#        186609
#        208304
#        219655
#        233861
#        245420
#        257537
#        273132
#
# Disc length: 3840 seconds
#
# Revision: 0
# Processed by: cddbd v1.5.2PL0 Copyright (c) Steve Scherf et al.
# Submitted via: ExactAudioCopyFreeDBPlugin 1.0
#
DISCID=120efe14
DTITLE=Eddie Boyd - And His Blues Band
DYEAR=2019
DGENRE=Blues
TTITLE0=Too Bad Part 1
TTITLE1=Dust My Broom
TTITLE2=Unfair Lovers
TTITLE3=Key To The Highway
TTITLE4=Vacation From The Blues
TTITLE5=Steak House Rock
TTITLE6=Letter Missin' Blues
TTITLE7=Ain't Doin' Too Bad
TTITLE8=Blue Coat Man
TTITLE9=The Train Is Coming
TTITLE10=Save Her, Doctor
TTITLE11=Rack 'em Back
TTITLE12=Too Bad Part 2
TTITLE13=The Big Bell
TTITLE14=Pinetop's Boogie Woogie
TTITLE15=Night Time Is The Right Time
TTITLE16=Blue Coat Man
TTITLE17=Five Long Years
TTITLE18=24 Hours
TTITLE19=Third Degree
EXTD=
EXTT0=
EXTT1=
EXTT2=
EXTT3=
EXTT4=
EXTT5=
EXTT6=
EXTT7=
EXTT8=
EXTT9=
EXTT10=
EXTT11=
EXTT12=
EXTT13=
EXTT14=
EXTT15=
EXTT16=
EXTT17=
EXTT18=
EXTT19=
PLAYORDER=
